<svg width="277" height="301" viewBox="0 0 277 301" fill="none" xmlns="http://www.w3.org/2000/svg">
<path d="M157.433 0.0194147C160.064 0.28246 161.676 2.94593 163.024 5.90516C174.636 31.2571 178.058 58.7139 177.992 87.0253C214.307 112.772 199.242 143.253 239.011 154.663L268.419 163.081C274.142 164.725 277.234 169.887 276.148 175.74C272.267 196.554 258.681 212.173 239.504 220.887C220.326 229.6 189.406 232.1 183.452 250.02C181.84 254.887 181.018 259.819 180.788 264.817L180.67 267.096C180.578 273.283 181.289 279.521 182.33 285.721C179.573 283.247 175.416 281.701 170.458 280.891C170.317 279.63 170.194 278.361 170.097 277.082C169.866 274.155 169.769 271.163 169.867 268.105L169.995 265.711C170.379 258.307 171.814 250.388 174.867 241.602C168.255 238.873 147.532 257.714 150.689 246.042C150.854 245.45 151.61 244.957 152.63 244.036C174.636 224.011 204.8 224.503 229.603 213.883C209.866 214.869 192.005 217.072 173.814 211.581C171.479 210.858 171.446 207.998 172.301 207.142C177.794 201.651 202.761 214.903 240.228 202.572C247.07 200.303 252.925 196.719 257.136 191.458C252.202 188.729 249.274 185.473 246.248 180.969L233.32 186.657C205.36 198.988 150.623 172.616 96.9395 203.525C79.1437 213.784 66.4796 229.141 59.21 248.541C71.2821 243.806 79.9003 236.539 93.2881 234.829L80.0322 253.802C79.177 255.051 76.8417 256.728 78.3877 258.011C80.9219 260.147 109.275 245.187 120.064 247.685C113.222 257.517 107.4 268.961 102.663 281.028C100.208 287.265 98.0441 293.674 96.1797 300.12C94.2075 297.729 89.4431 292.472 79.5605 282.119C70.127 272.236 57.3445 262.334 46.5098 254.907C41.0905 251.193 36.1506 248.092 32.3516 245.918C30.453 244.831 28.8327 243.973 27.5771 243.385C26.95 243.091 26.4061 242.861 25.96 242.703C25.5303 242.551 25.1376 242.447 24.8359 242.447C22.9579 242.447 21.5809 243.475 20.1895 244.663C18.7753 245.87 17.299 247.285 15.1299 248.37H15.1289C14.7446 248.562 13.3407 249.316 11.1123 250.156C10.9008 250.236 9.71064 250.723 7.72363 251.541C8.84172 248.237 9.90812 244.805 10.9395 241.224C11.9443 237.736 12.9182 234.108 13.8818 230.324C7.69769 231.048 5.65784 235.125 0 233.086C8.58539 216.217 15.4935 199.546 18.0264 180.508C19.2435 171.268 24.2434 160.844 23.0264 151.638C21.0198 136.545 16.9406 122.702 16.6445 107.083C16.1182 81.0735 19.21 55.7217 25.7559 30.6659C26.4466 28.0354 28.355 25.9306 29.8682 25.3388C32.3681 24.3523 35.6573 25.2074 38.1572 26.9501C59.1109 41.8784 76.8741 59.108 92.7949 79.3632C98.9462 78.8371 106.611 77.8838 111.282 74.6942C115.46 61.3439 144.538 -1.26276 157.433 0.0194147ZM53.6182 206.945C44.8354 210.891 39.3743 218.289 35.5586 226.575C44.1111 223.418 50.7563 216.744 53.6182 206.945ZM49.9004 194.186C52.0052 182.219 34.9018 205.727 35.3945 210.496C41.8088 206.452 45.8873 200.697 49.9004 194.186ZM41.4473 175.641C37.2697 182.053 33.9798 187.972 32.1377 195.699C39.1113 190.767 42.6315 183.895 41.4473 175.641ZM100.756 183.5C89.8679 180.508 83.9469 188.104 76.3154 192.773C73.4207 192.905 75.4928 194.515 78.1572 193.989C86.2492 190.833 94.1113 187.544 100.756 183.5ZM102.86 172.058C93.3542 167.29 84.6705 171.498 77.5654 177.614C87.1702 177.154 94.4726 173.998 102.86 172.058ZM143.223 141.477C133.848 141.642 129.604 147.692 122.631 150.257C120.295 151.112 117.828 153.085 119.045 155.288C119.252 155.654 140.888 165.283 144.275 162.85L144.242 162.817C139.966 154.038 140.032 148.35 143.223 141.477ZM156.841 144.634C157.499 152.229 156.775 156.965 154.341 162.653C161.347 162.357 166.248 160.91 172.005 157.622C166.577 151.309 162.729 148.152 156.841 144.634ZM39.21 44.1141C29.3746 70.1894 38.2559 119.643 49.1768 143.943C62.6964 139.142 33.7827 93.6996 51.4141 75.1542L52.4336 95.7714C56.1073 93.5746 55.4637 88.9593 59.4062 89.0634C59.472 95.4096 56.1833 98.7313 58.749 104.025C61.249 101.921 60.6905 97.777 65.5918 97.0536C63.8155 104.978 62.4666 111.949 63.6836 120.728C71.2162 112.738 78.5846 106.294 88.8145 100.605C74.5712 78.6074 58.3216 60.2592 39.21 44.1141ZM195.787 126.351C193.452 133.125 197.334 140.031 203.584 142.168C202.367 135.986 200.557 130.889 195.787 126.351ZM140.295 104.387C146.578 107.773 150.656 113.331 158.847 115.008C155.327 107.116 147.861 105.274 140.295 104.387ZM154.966 100.572C159.143 105.307 162.926 109.582 169.209 113.002C167.926 106.787 162.531 101.427 154.966 100.572ZM156.873 21.3602C148.748 38.8533 145.097 56.5109 143.519 75.5165C152.3 77.6865 159.175 80.8749 168.187 80.9413C166.411 60.2707 164.731 40.52 156.873 21.3602Z" fill="#F62300"/>
</svg>
